<svg width="12" height="22" viewBox="0 0 12 22" fill="none" xmlns="http://www.w3.org/2000/svg">
<path fill-rule="evenodd" clip-rule="evenodd" d="M1.05185 1.07187C1.12442 0.999113 1.21063 0.94139 1.30555 0.902004C1.40046 0.862619 1.50221 0.842346 1.60497 0.842346C1.70773 0.842346 1.80949 0.862619 1.9044 0.902004C1.99931 0.94139 2.08553 0.999113 2.1581 1.07187L11.5331 10.4469C11.6059 10.5194 11.6636 10.6057 11.703 10.7006C11.7423 10.7955 11.7626 10.8972 11.7626 11C11.7626 11.1028 11.7423 11.2045 11.703 11.2994C11.6636 11.3943 11.6059 11.4805 11.5331 11.5531L2.1581 20.9281C2.0114 21.0748 1.81244 21.1572 1.60497 21.1572C1.39751 21.1572 1.19855 21.0748 1.05185 20.9281C0.90515 20.7814 0.822736 20.5825 0.822736 20.375C0.822736 20.1675 0.90515 19.9686 1.05185 19.8219L9.87529 11L1.05185 2.17812C0.979093 2.10555 0.921369 2.01933 0.881984 1.92442C0.842599 1.82951 0.822327 1.72775 0.822327 1.62499C0.822327 1.52223 0.842599 1.42048 0.881984 1.32557C0.921369 1.23065 0.979093 1.14444 1.05185 1.07187Z" fill="#3E2A39"/>
</svg>
