<svg width="25" height="25" viewBox="0 0 25 25" fill="none" xmlns="http://www.w3.org/2000/svg">
<path fill-rule="evenodd" clip-rule="evenodd" d="M17.7406 22.4281C17.6681 22.5008 17.5818 22.5585 17.4869 22.5979C17.392 22.6373 17.2903 22.6576 17.1875 22.6576C17.0847 22.6576 16.983 22.6373 16.8881 22.5979C16.7932 22.5585 16.707 22.5008 16.6344 22.4281L7.25938 13.0531C7.18663 12.9805 7.1289 12.8943 7.08952 12.7994C7.05013 12.7045 7.02986 12.6027 7.02986 12.4999C7.02986 12.3972 7.05013 12.2954 7.08952 12.2005C7.1289 12.1056 7.18663 12.0194 7.25938 11.9468L16.6344 2.57182C16.7811 2.42512 16.98 2.34271 17.1875 2.34271C17.395 2.34271 17.5939 2.42512 17.7406 2.57182C17.8873 2.71852 17.9697 2.91748 17.9697 3.12495C17.9697 3.33241 17.8873 3.53137 17.7406 3.67807L8.91719 12.4999L17.7406 21.3218C17.8134 21.3944 17.8711 21.4806 17.9105 21.5755C17.9499 21.6704 17.9702 21.7722 17.9702 21.8749C17.9702 21.9777 17.9499 22.0795 17.9105 22.1744C17.8711 22.2693 17.8134 22.3555 17.7406 22.4281Z" fill="#3E2A39"/>
</svg>
