<svg width="19" height="16" viewBox="0 0 19 16" fill="none" xmlns="http://www.w3.org/2000/svg">
<path d="M14.912 15.104C17.648 15.104 18.944 12.44 17.936 11.288C14.768 12.08 12.824 11.072 12.824 8.192C12.824 4.016 16.28 2.36 18.152 0.775999L17.864 0.559997C14.264 2.288 10.304 6.248 10.304 10.064C10.304 13.448 12.464 15.104 14.912 15.104ZM5.192 15.104C7.928 15.104 9.224 12.44 8.216 11.288C5.048 12.08 3.104 11.072 3.104 8.192C3.104 4.016 6.56 2.36 8.432 0.775999L8.144 0.559997C4.544 2.288 0.584 6.248 0.584 10.064C0.584 13.448 2.744 15.104 5.192 15.104Z" fill="#3E2A39"/>
</svg>
